<?xml version="1.0" encoding="UTF-8" standalone="no"?>
<!DOCTYPE svg PUBLIC "-//W3C//DTD SVG 1.1//EN" "http://www.w3.org/Graphics/SVG/1.1/DTD/svg11.dtd">
<svg width="100%" height="100%" viewBox="0 0 919 1238" version="1.1" xmlns="http://www.w3.org/2000/svg" xmlns:xlink="http://www.w3.org/1999/xlink" xml:space="preserve" xmlns:serif="http://www.serif.com/" style="fill-rule:evenodd;clip-rule:evenodd;stroke-linejoin:round;stroke-miterlimit:2;">
    <g transform="matrix(1,0,0,1,28.409,45.9749)">
        <path d="M263.523,340.825C239.633,392.252 228.709,433.72 223.965,464.246C220.583,486.008 220.32,502.345 220.809,512.928C220.54,517.575 220.405,522.253 220.405,526.963C220.405,661.099 329.509,770.012 463.905,770.012L464.026,770.011L464.78,770.01C464.786,770.01 464.792,770.01 464.799,770.01C598.787,769.577 707.405,660.92 707.405,527.162L707.405,526.957L707.404,525.259C707.404,525.245 707.404,525.232 707.404,525.218C707.403,524.902 707.397,524.583 707.385,524.252C707.391,524.497 707.386,524.043 707.386,524.043C707.386,524.029 707.385,524.014 707.385,523.999L707.38,523.675C707.38,523.689 707.374,523.263 707.374,523.263C707.374,523.256 707.374,523.249 707.374,523.243L707.37,522.994C707.37,522.96 707.369,522.926 707.368,522.891L707.367,522.853C707.369,522.963 707.368,522.898 707.368,522.898C707.368,522.89 707.368,522.883 707.368,522.876L707.361,522.478C707.361,522.463 707.36,522.447 707.36,522.432L707.355,522.206C707.356,522.246 707.355,522.191 707.355,522.191L707.352,522.073C707.353,522.082 707.346,521.714 707.346,521.714C707.345,521.696 707.345,521.678 707.344,521.659L707.339,521.455C707.339,521.446 707.339,521.436 707.339,521.427L707.337,521.354C707.338,521.402 707.335,521.269 707.335,521.269L707.327,520.92C707.326,520.907 707.326,520.894 707.326,520.881L707.321,520.699C707.322,520.749 707.32,520.66 707.32,520.66C707.319,520.636 707.319,520.612 707.318,520.589L707.313,520.42C707.313,520.423 707.304,520.115 707.304,520.115C707.305,520.159 707.301,519.998 707.301,519.998C707.301,519.986 707.301,519.973 707.3,519.961L707.297,519.856C707.297,519.838 707.296,519.82 707.296,519.802L707.289,519.596C707.29,519.646 707.282,519.37 707.282,519.37C707.282,519.347 707.281,519.325 707.28,519.303L707.275,519.163C707.276,519.189 707.272,519.068 707.272,519.068C707.272,519.068 707.264,518.826 707.264,518.826C707.264,518.829 707.256,518.585 707.256,518.585L707.252,518.459C707.251,518.447 707.251,518.435 707.251,518.422L707.246,518.287C707.245,518.28 707.245,518.273 707.245,518.266L707.234,517.985C707.236,518.043 707.229,517.833 707.229,517.833C707.228,517.812 707.227,517.792 707.227,517.771L707.222,517.666L707.216,517.508L707.203,517.189C707.204,517.199 707.197,517.023 707.197,517.023C707.198,517.055 707.195,516.973 707.195,516.973C707.194,516.952 707.193,516.931 707.192,516.909L707.185,516.731L707.169,516.371C707.169,516.387 707.163,516.247 707.163,516.247C707.163,516.234 707.162,516.221 707.161,516.207L707.158,516.143C707.159,516.157 707.151,515.981 707.151,515.981C707.151,515.988 707.133,515.586 707.133,515.586C707.133,515.574 707.132,515.561 707.132,515.549L707.127,515.446C707.129,515.486 707.127,515.441 707.127,515.441C707.126,515.432 707.126,515.422 707.125,515.412L707.116,515.222C707.116,515.208 707.115,515.193 707.114,515.178L707.092,514.749L707.091,514.725C707.091,514.728 707.091,514.731 707.091,514.734L707.092,514.749L707.094,514.802C707.092,514.738 707.089,514.675 707.085,514.612L707.074,514.411C707.075,514.425 707.047,513.9 707.047,513.9C707.047,513.898 707.047,513.895 707.047,513.893C704.129,459.88 683.483,410.53 650.821,371.549C734.499,430.813 788.403,523.158 788.403,626.996C788.403,806.089 628.055,950.993 431.105,950.993C234.156,950.993 73.807,806.089 73.807,626.996C73.807,502.92 150.77,395.254 263.523,340.825ZM291.697,328.628C296.718,318.749 302.223,308.52 308.252,297.954L308.434,297.604L308.357,297.755C318.189,279.941 324.562,268.272 328.625,251.09C341.826,244.562 380.371,224.371 400.805,201.692C404.499,197.592 404.17,191.264 400.069,187.569C395.969,183.875 389.641,184.204 385.946,188.305C363.669,213.029 317.621,234.245 315.779,235.088C311.898,236.815 307.978,238.482 304.022,240.084C241.376,265.463 179.125,271.715 134.358,260.162C106.924,253.082 86.243,239.398 77.798,218.551C69.353,197.704 74.678,173.485 89.449,149.307C113.553,109.853 162.604,71.016 225.249,45.638C277.26,24.567 329.935,16.448 372.407,21.401C399.276,24.535 421.949,32.827 437.124,46.828C437.809,47.46 438.578,47.993 439.41,48.411C439.41,48.411 476.728,67.724 487.584,121.505C495.245,159.453 489.785,213.64 451.898,289.209C449.087,294.14 446.385,299.001 443.789,303.795L443.463,304.396L442.912,305.418L442.597,306.004L442.042,307.038L441.738,307.606L441.179,308.656L440.888,309.203L440.32,310.274L440.045,310.794L439.467,311.893L439.211,312.38L438.615,313.517L438.384,313.96L437.764,315.152L437.565,315.535L436.907,316.807L436.754,317.105L436.033,318.507L435.95,318.669C434.333,321.828 432.762,324.953 431.232,328.056L431.177,328.168L430.481,329.585L430.369,329.813L429.736,331.109L429.591,331.408L428.999,332.628L428.832,332.975L428.27,334.142L428.088,334.522L427.547,335.651L427.355,336.054L426.831,337.156L426.633,337.574L426.122,338.655L425.92,339.085L425.421,340.15L425.217,340.586L424.726,341.64L424.521,342.08L424.038,343.125L423.834,343.566L423.356,344.606L423.155,345.045L422.681,346.083L422.483,346.517L422.012,347.556L421.819,347.983L421.35,349.025L421.163,349.442L420.693,350.492L420.513,350.896L420.043,351.956L419.871,352.343L419.397,353.418L419.236,353.784L418.756,354.881L418.608,355.219L418.119,356.345L417.987,356.649L417.484,357.815L417.373,358.073L416.849,359.296L416.766,359.49L416.21,360.797L416.165,360.902C414.355,365.175 412.637,369.373 411.001,373.507L410.961,373.608L410.466,374.865L410.398,375.037L409.937,376.217L409.851,376.439L409.414,377.565L409.315,377.821L408.897,378.907L408.789,379.189L408.386,380.245L408.272,380.545L407.881,381.578L407.763,381.89L407.382,382.905L407.262,383.226L406.889,384.228L406.768,384.554L406.401,385.546L406.281,385.874L405.92,386.86L405.801,387.187L405.443,388.17L405.327,388.493L404.972,389.476L404.859,389.792L404.507,390.779L404.398,391.084L404.046,392.078L403.943,392.37L403.59,393.376L403.494,393.65L403.138,394.672L403.051,394.923L402.69,395.97L402.615,396.19L402.245,397.27L402.184,397.452L401.802,398.579L401.758,398.707L401.357,399.903L401.339,399.956C400.073,403.744 398.886,407.453 397.773,411.08L397.409,412.272L397.383,412.357L397.05,413.459L397.007,413.6L396.696,414.64L396.642,414.822L396.348,415.816L396.286,416.026L396.004,416.987L395.937,417.218L395.666,418.152L395.595,418.399L395.332,419.313L395.259,419.57L395.003,420.468L394.929,420.732L394.68,421.618L394.605,421.886L394.361,422.764L394.286,423.033L394.046,423.905L393.973,424.172L393.736,425.041L393.665,425.304L393.431,426.174L393.362,426.43L393.13,427.303L393.065,427.549L392.833,428.428L392.772,428.661L392.54,429.552L392.484,429.767L392.251,430.675L392.202,430.867L391.965,431.799L391.924,431.96L391.681,432.927L391.651,433.048L391.398,434.064L391.382,434.129C390.485,437.765 389.666,441.302 388.921,444.733L388.909,444.786L388.701,445.749L388.678,445.858L388.486,446.759L388.455,446.907L388.275,447.764L388.239,447.94L388.068,448.763L388.028,448.96L387.866,449.757L387.823,449.969L387.667,450.745L387.622,450.968L387.472,451.728L387.427,451.958L387.281,452.706L387.235,452.94L387.093,453.678L387.048,453.915L386.91,454.646L386.866,454.882L386.73,455.608L386.687,455.842L386.554,456.566L386.513,456.795L386.382,457.52L386.342,457.742L386.213,458.469L386.175,458.682L386.047,459.415L386.012,459.615L385.885,460.359L385.853,460.542L385.725,461.301L385.698,461.463L385.569,462.244L385.546,462.378L385.414,463.191L385.398,463.286L385.261,464.147L385.254,464.188C384.822,466.915 384.438,469.559 384.097,472.124L384.091,472.172L383.987,472.965L383.974,473.064L383.88,473.8L383.863,473.934L383.776,474.63L383.756,474.788L383.675,475.453L383.654,475.629L383.577,476.271L383.555,476.46L383.482,477.083L383.459,477.281L383.39,477.89L383.367,478.094L383.301,478.691L383.278,478.898L383.214,479.486L383.192,479.696L383.131,480.276L383.109,480.486L383.05,481.06L383.029,481.269L382.972,481.839L382.952,482.045L382.897,482.614L382.878,482.814L382.824,483.383L382.806,483.577L382.754,484.148L382.738,484.333L382.687,484.909L382.672,485.083L382.622,485.667L382.609,485.826L382.559,486.423L382.548,486.564L382.499,487.178L382.49,487.294L382.44,487.937L382.434,488.019L382.383,488.705L382.381,488.737C382.241,490.666 382.128,492.528 382.038,494.322L382.036,494.373L382.006,494.984L382.002,495.076L381.976,495.64L381.971,495.76L381.948,496.29L381.942,496.429L381.922,496.934L381.916,497.086L381.898,497.572L381.892,497.734L381.876,498.203L381.871,498.372L381.856,498.829L381.851,499.003L381.838,499.449L381.833,499.626L381.822,500.064L381.818,500.241L381.808,500.672L381.804,500.849L381.795,501.274L381.792,501.451L381.784,501.871L381.781,502.045L381.775,502.463L381.773,502.633L381.768,503.048L381.766,503.214L381.762,503.629L381.761,503.789L381.758,504.204L381.757,504.357L381.756,504.592L381.755,505.513L381.755,505.679L381.758,506.594L381.759,506.739L381.768,507.644L381.782,508.682C381.789,509.026 381.796,509.369 381.803,509.712L381.828,510.704L381.834,510.887L381.858,511.667L381.867,511.945L381.891,512.604L381.904,512.922L381.929,513.517L381.945,513.852L381.971,514.404L381.989,514.746L382.016,515.266L382.036,515.61L382.064,516.103L382.086,516.444L382.116,516.914L382.138,517.251L382.169,517.701L382.193,518.03L382.226,518.462L382.251,518.783L382.284,519.197L382.31,519.51L382.344,519.907L382.371,520.21L382.405,520.592L382.433,520.885L382.468,521.251L382.496,521.533L382.532,521.884L382.56,522.156L382.596,522.492L382.625,522.753L382.661,523.075L382.689,523.323L382.726,523.632L382.754,523.868L382.79,524.163L382.818,524.387L382.854,524.668L382.882,524.88L382.918,525.148L382.945,525.347L382.98,525.602L383.006,525.788L383.041,526.031L383.067,526.203L383.101,526.434L383.125,526.592L383.159,526.812L383.181,526.955L383.215,527.165L383.236,527.292L383.269,527.495L383.287,527.603L383.292,527.633L383.381,528.146C383.911,572.101 419.83,607.634 464.012,607.634L464.534,607.632C508.804,607.352 544.648,571.396 544.648,527.162C544.648,482.927 508.804,446.97 464.534,446.69L464.012,446.688C440.451,446.688 419.239,456.794 404.493,472.891L404.146,473.272C404.186,472.981 404.227,472.688 404.269,472.392L404.396,471.505L404.526,470.61L404.66,469.708L404.661,469.704L404.723,469.298L404.799,468.799L404.799,468.795L404.865,468.374L404.941,467.883L404.942,467.877L405.01,467.445L405.087,466.96L405.088,466.953L405.16,466.509L405.237,466.03L405.238,466.022L405.313,465.568L405.391,465.092L405.393,465.084L405.471,464.619L405.55,464.148L405.551,464.138L405.632,463.664L405.712,463.196L405.714,463.185L405.798,462.701L405.879,462.237L405.881,462.225L405.969,461.731L406.05,461.271L406.052,461.258L406.143,460.754L406.226,460.298L406.228,460.284L406.323,459.769L406.405,459.318L406.408,459.303L406.506,458.778L406.589,458.331L406.593,458.315L406.694,457.778L406.778,457.337L406.781,457.32L406.887,456.772L406.971,456.336L406.975,456.318L407.084,455.758L407.169,455.328L407.173,455.308L407.287,454.737L407.371,454.312L407.375,454.292L407.493,453.709L407.578,453.29L407.583,453.268L407.705,452.673L407.79,452.261L407.794,452.237L407.921,451.63L408.006,451.224L408.011,451.2L408.142,450.58L408.227,450.181L408.233,450.155L408.369,449.523L408.453,449.13L408.459,449.103L408.6,448.458L408.684,448.073L408.69,448.045L408.836,447.386L408.92,447.009L408.926,446.979L409.077,446.307L409.16,445.937L409.167,445.906L409.323,445.221L409.406,444.859L409.413,444.827L409.575,444.127L409.657,443.773L409.664,443.74L409.831,443.027L409.912,442.681L409.921,442.646L410.093,441.919L410.173,441.581L410.182,441.545L410.361,440.804L410.44,440.475L410.449,440.438L410.633,439.682L410.711,439.362L410.721,439.323L410.911,438.553L410.988,438.241L410.998,438.201L411.194,437.417L411.27,437.114L411.28,437.073L411.483,436.273L411.557,435.98L411.568,435.937L411.777,435.123L411.85,434.839L411.862,434.795L412.077,433.966L412.148,433.691L412.16,433.645L412.382,432.801L412.452,432.536L412.465,432.489L412.694,431.63L412.762,431.374L412.775,431.325L413.01,430.452L413.077,430.206L413.09,430.155L413.333,429.266L413.397,429.03L413.412,428.978L413.661,428.074L413.724,427.847L413.738,427.794L413.995,426.875L414.056,426.658L414.071,426.603L414.335,425.669L414.394,425.462L414.41,425.405L414.681,424.456L414.737,424.258L414.754,424.2L415.033,423.236L415.087,423.048L415.104,422.989L415.391,422.01L415.443,421.831L415.46,421.77L415.754,420.776L415.804,420.608L415.823,420.545L416.124,419.536L416.172,419.377L416.191,419.313L416.5,418.289L416.545,418.14L416.565,418.074L416.882,417.035L416.925,416.895L416.946,416.828L417.271,415.774L417.311,415.644L417.332,415.575L417.665,414.507L417.703,414.386L417.725,414.315L418.066,413.233L418.101,413.121L418.124,413.049L418.474,411.952L418.506,411.85L418.53,411.775L418.941,410.495L419.36,409.208L419.784,407.915L420.215,406.614L420.653,405.307L421.097,403.993L421.548,402.672L422.006,401.344L422.47,400.01L422.941,398.669L423.419,397.321L423.87,396.061C429.88,379.334 437.465,361.07 447.011,341.328L447.094,341.156L447.874,339.549L448.663,337.936L449.46,336.317L450.267,334.691L451.082,333.059L451.906,331.42L452.603,330.043L452.643,329.962L452.648,329.952L452.738,329.774L453.435,328.407L453.483,328.313L453.489,328.301L453.58,328.122L454.276,326.766L454.332,326.657L454.339,326.643L454.431,326.464L455.126,325.119L455.19,324.995L455.199,324.978L455.291,324.8L455.984,323.467L456.057,323.326L456.067,323.307L456.16,323.128L456.851,321.808L456.933,321.651L456.944,321.63L457.038,321.451L457.726,320.144L457.818,319.969L457.831,319.945L457.925,319.767L458.61,318.475L458.713,318.281L458.727,318.255L458.822,318.076L459.503,316.799L459.616,316.587L459.632,316.557L459.727,316.379L460.405,315.118L460.529,314.886L460.547,314.853L460.642,314.676L461.315,313.432L461.452,313.179L461.471,313.143L461.567,312.966L462.234,311.739L462.383,311.465L462.405,311.426L462.501,311.25L463.162,310.042L463.325,309.745L463.348,309.702L463.444,309.528L464.099,308.338L464.275,308.019L464.301,307.972L464.397,307.799L465.045,306.629L465.235,306.286L465.264,306.235L465.359,306.064L466,304.915L466.205,304.547L466.205,304.547L466.331,304.322L466.493,304.324C466.469,304.324 466.887,304.329 466.887,304.329C466.927,304.329 466.967,304.33 467.006,304.33L467.026,304.33C466.872,304.328 467.196,304.333 467.196,304.333L467.606,304.339L467.753,304.34C467.631,304.339 467.925,304.345 467.925,304.345C467.935,304.345 467.945,304.345 467.955,304.345L468.288,304.35L468.319,304.351L468.654,304.358L469.04,304.366L469.217,304.368L469.281,304.369L469.247,304.369L469.217,304.368C469.117,304.367 469.373,304.374 469.373,304.374L469.755,304.383C469.742,304.382 469.782,304.383 469.782,304.383C469.761,304.383 470.092,304.392 470.092,304.392L470.47,304.402C470.485,304.402 470.5,304.403 470.515,304.403L470.56,304.404C470.48,304.402 470.811,304.412 470.811,304.412L471.133,304.422L471.198,304.424L471.532,304.435L471.896,304.447C471.868,304.446 471.896,304.447 471.896,304.447C471.883,304.447 471.91,304.448 471.91,304.448L472.249,304.46L472.609,304.473L472.665,304.475L472.695,304.476C472.631,304.474 472.958,304.487 472.958,304.487L473.317,304.501L473.346,304.502L473.676,304.516L474.028,304.531L474.058,304.533L474.091,304.534L474.415,304.548L474.696,304.561L474.73,304.563C474.744,304.564 474.759,304.564 474.773,304.565L475.095,304.581C475.106,304.582 475.117,304.582 475.128,304.583L475.473,304.599L475.266,304.586L475.674,304.607L475.484,304.599L475.809,304.617L476.151,304.635C476.167,304.636 476.184,304.636 476.201,304.637L476.285,304.641C476.193,304.636 476.51,304.654 476.51,304.654L476.857,304.674L476.894,304.676L476.934,304.678L477.249,304.696C477.225,304.695 477.561,304.715 477.561,304.715L477.63,304.718L477.642,304.719L477.955,304.738C477.93,304.737 478.262,304.758 478.262,304.758C478.273,304.758 478.284,304.759 478.294,304.76L478.344,304.763C478.32,304.761 478.368,304.764 478.368,304.764C478.35,304.763 478.661,304.783 478.661,304.783L478.958,304.802L479.096,304.811L479.147,304.814C479.054,304.808 479.362,304.829 479.362,304.829L479.695,304.852C479.643,304.848 479.698,304.852 479.698,304.852C479.671,304.85 479.724,304.854 479.724,304.854C479.735,304.855 479.746,304.856 479.757,304.857L480.062,304.879C480.076,304.88 480.09,304.881 480.104,304.882L480.355,304.899L480.437,304.905L480.493,304.909L480.796,304.931C480.775,304.93 481.096,304.954 481.096,304.954L481.137,304.957L481.194,304.961L481.494,304.984C481.498,304.985 481.502,304.985 481.506,304.985L481.824,305.009C481.773,305.005 481.835,305.01 481.835,305.01C481.808,305.008 481.868,305.013 481.868,305.013C481.877,305.014 481.886,305.014 481.896,305.015L482.194,305.039L482.456,305.06L482.584,305.071L482.647,305.076C482.591,305.072 482.885,305.097 482.885,305.097C482.892,305.097 482.898,305.098 482.905,305.098L483.218,305.124L483.275,305.129L483.326,305.133L483.619,305.158C483.599,305.157 483.908,305.184 483.908,305.184L483.981,305.19C483.968,305.189 484.036,305.195 484.036,305.195C484.019,305.193 484.308,305.219 484.308,305.219C484.296,305.218 484.603,305.246 484.603,305.246C484.544,305.241 484.616,305.248 484.616,305.248C484.65,305.251 484.683,305.254 484.717,305.257L484.786,305.263C484.716,305.257 485.003,305.284 485.003,305.284C485.009,305.284 485.016,305.285 485.022,305.285L485.326,305.313C485.302,305.311 485.376,305.318 485.376,305.318C485.35,305.316 485.422,305.323 485.422,305.323C485.429,305.323 485.436,305.324 485.443,305.325L485.727,305.352C485.714,305.35 486.015,305.379 486.015,305.379C485.941,305.372 486.018,305.38 486.018,305.38C486.049,305.383 486.079,305.386 486.11,305.389L486.184,305.396C486.134,305.391 486.415,305.419 486.415,305.419C486.408,305.419 486.707,305.449 486.707,305.449C486.698,305.448 486.777,305.456 486.777,305.456C486.811,305.459 486.845,305.462 486.879,305.465L486.956,305.472C486.824,305.46 487.102,305.489 487.102,305.489C487.112,305.49 487.121,305.491 487.131,305.492L487.427,305.522C487.344,305.513 487.426,305.522 487.426,305.522C487.45,305.524 487.474,305.527 487.497,305.529L487.575,305.537C487.55,305.535 487.826,305.564 487.826,305.564C487.823,305.563 488.117,305.594 488.117,305.594C488.1,305.593 488.184,305.602 488.184,305.602C488.145,305.597 488.226,305.606 488.226,305.606L488.513,305.638L488.805,305.67C488.821,305.672 488.837,305.673 488.854,305.675L488.94,305.684C488.902,305.68 488.985,305.689 488.985,305.689C488.923,305.682 489.193,305.713 489.193,305.713C489.206,305.715 489.219,305.716 489.233,305.718L489.522,305.75C489.506,305.748 489.595,305.758 489.595,305.758C489.543,305.752 489.628,305.762 489.628,305.762C489.633,305.763 489.638,305.763 489.643,305.764L489.917,305.796L490.203,305.829C490.162,305.824 490.254,305.835 490.254,305.835C490.269,305.837 490.284,305.838 490.299,305.84L490.386,305.85C490.362,305.847 490.626,305.878 490.626,305.878C490.604,305.876 490.888,305.91 490.888,305.91C490.897,305.911 490.905,305.912 490.914,305.913L491.008,305.924C490.944,305.916 491.033,305.927 491.033,305.927C491.038,305.928 491.042,305.928 491.047,305.929L491.32,305.962L491.601,305.996C491.575,305.993 491.672,306.005 491.672,306.005C491.681,306.006 491.69,306.007 491.699,306.008L491.79,306.019C491.764,306.016 492.023,306.048 492.023,306.048C492.005,306.046 492.284,306.081 492.284,306.081C492.226,306.073 492.325,306.086 492.325,306.086C492.368,306.092 492.41,306.097 492.453,306.102L492.546,306.113C492.442,306.1 492.698,306.133 492.698,306.133C492.683,306.132 492.959,306.168 492.959,306.168C492.969,306.169 492.978,306.17 492.988,306.171L493.09,306.184C493.098,306.185 493.106,306.186 493.114,306.187L493.21,306.199C493.113,306.187 493.365,306.221 493.365,306.221C493.389,306.224 493.412,306.227 493.435,306.23L493.709,306.265C493.655,306.258 493.76,306.272 493.76,306.272C493.753,306.271 493.85,306.284 493.85,306.284C493.831,306.281 494.081,306.315 494.081,306.315C494.093,306.317 494.104,306.318 494.116,306.32L494.388,306.356C494.312,306.346 494.419,306.361 494.419,306.361C494.448,306.365 494.477,306.369 494.505,306.372L494.604,306.385C494.503,306.372 494.75,306.407 494.75,306.407C494.764,306.408 494.777,306.41 494.791,306.412L495.071,306.451L495.181,306.466C495.159,306.463 495.26,306.477 495.26,306.477C495.253,306.476 495.497,306.51 495.497,306.51C495.468,306.506 495.735,306.544 495.735,306.544C495.73,306.543 495.842,306.559 495.842,306.559C495.829,306.557 495.933,306.572 495.933,306.572C495.923,306.571 496.164,306.606 496.164,306.606C496.17,306.607 496.176,306.607 496.182,306.608L496.447,306.646C496.457,306.648 496.467,306.649 496.477,306.65L496.591,306.666C496.488,306.651 496.594,306.667 496.594,306.667C496.606,306.669 496.619,306.671 496.631,306.673L496.869,306.708C496.876,306.709 496.883,306.71 496.889,306.711L497.151,306.749C497.066,306.736 497.183,306.754 497.183,306.754C497.201,306.757 497.22,306.76 497.238,306.763L497.346,306.779C497.338,306.777 497.573,306.812 497.573,306.812L497.798,306.846C497.81,306.848 497.863,306.856 497.863,306.856C497.9,306.862 497.937,306.868 497.974,306.873L498.083,306.889C498.008,306.878 498.241,306.914 498.241,306.914C498.25,306.916 498.259,306.917 498.268,306.918L498.525,306.957C498.408,306.939 498.53,306.959 498.53,306.959C498.569,306.965 498.608,306.971 498.647,306.977L498.759,306.994C498.706,306.986 498.935,307.022 498.935,307.022L499.194,307.063C499.163,307.058 499.288,307.078 499.288,307.078C499.295,307.079 499.302,307.08 499.309,307.081L499.423,307.099C499.409,307.097 499.635,307.133 499.635,307.133L499.9,307.175C499.842,307.166 499.97,307.187 499.97,307.187C499.959,307.185 500.074,307.204 500.074,307.204C500.086,307.206 500.099,307.208 500.111,307.21L500.334,307.246C500.315,307.243 500.566,307.284 500.566,307.284C500.51,307.274 500.64,307.296 500.64,307.296C500.662,307.3 500.684,307.304 500.705,307.307L500.822,307.326C500.774,307.318 500.995,307.355 500.995,307.355C501.002,307.356 501.009,307.357 501.015,307.359L501.263,307.4C501.262,307.399 501.395,307.421 501.395,307.421C501.37,307.417 501.489,307.437 501.489,307.437C501.466,307.433 501.683,307.47 501.683,307.47L501.934,307.513C501.931,307.512 502.066,307.535 502.066,307.535C502.035,307.53 502.156,307.551 502.156,307.551L502.384,307.591L502.628,307.633C502.554,307.62 502.693,307.645 502.693,307.645C502.718,307.649 502.742,307.653 502.767,307.658L502.889,307.679C502.866,307.675 503.078,307.712 503.078,307.712C503.041,307.705 503.282,307.748 503.282,307.748C503.289,307.749 503.297,307.751 503.305,307.752L503.447,307.777C503.433,307.775 503.557,307.797 503.557,307.797C503.553,307.796 503.761,307.833 503.761,307.833C503.742,307.829 503.981,307.872 503.981,307.872L504.131,307.9C504.087,307.891 504.212,307.914 504.212,307.914C504.207,307.914 504.413,307.952 504.413,307.952C504.423,307.953 504.433,307.955 504.442,307.957L504.679,308C504.658,307.996 504.805,308.023 504.805,308.023C504.813,308.024 504.821,308.026 504.829,308.027L504.956,308.05C504.898,308.04 505.101,308.078 505.101,308.078C505.101,308.078 505.336,308.122 505.336,308.122C505.33,308.12 505.479,308.148 505.479,308.148C505.489,308.15 505.499,308.152 505.51,308.154L505.64,308.178C505.58,308.167 505.779,308.205 505.779,308.205C505.785,308.206 505.792,308.208 505.799,308.209L506.032,308.253C506.013,308.249 506.165,308.278 506.165,308.278C506.165,308.278 506.296,308.303 506.296,308.303C506.267,308.298 506.463,308.336 506.463,308.336C506.474,308.338 506.485,308.34 506.495,308.342L506.726,308.386C506.697,308.38 506.852,308.41 506.852,308.41C506.834,308.407 506.967,308.433 506.967,308.433C506.954,308.43 507.147,308.468 507.147,308.468C507.159,308.471 507.171,308.473 507.184,308.475L507.412,308.519L507.529,308.542C507.538,308.544 507.609,308.559 507.609,308.559C507.622,308.561 507.634,308.564 507.647,308.566L507.838,308.604C507.837,308.604 508.063,308.649 508.063,308.649L508.227,308.682C508.215,308.679 508.35,308.706 508.35,308.706C508.33,308.702 508.518,308.74 508.518,308.74L508.754,308.788C508.693,308.775 508.857,308.809 508.857,308.809C508.889,308.816 508.922,308.822 508.954,308.829L509.091,308.856C509.002,308.838 509.186,308.876 509.186,308.876C509.179,308.875 509.401,308.921 509.401,308.921C509.379,308.916 509.546,308.951 509.546,308.951C509.567,308.955 509.588,308.96 509.609,308.964L509.747,308.992C509.681,308.978 509.862,309.016 509.862,309.016C509.867,309.017 509.873,309.019 509.879,309.02L510.1,309.066C510.066,309.059 510.236,309.095 510.236,309.095C510.245,309.097 510.255,309.099 510.265,309.101L510.404,309.13C510.359,309.12 510.537,309.158 510.537,309.158C510.544,309.16 510.552,309.161 510.56,309.163L510.778,309.209C510.751,309.203 510.924,309.24 510.924,309.24L511.088,309.275L511.263,309.312C511.205,309.3 511.421,309.347 511.421,309.347C511.426,309.348 511.432,309.349 511.437,309.35L511.613,309.388C511.591,309.383 511.733,309.414 511.733,309.414C511.742,309.417 511.752,309.419 511.762,309.421L511.934,309.458C511.892,309.449 512.106,309.496 512.106,309.496C512.112,309.497 512.117,309.498 512.123,309.499L512.302,309.538C512.247,309.526 512.39,309.558 512.39,309.558C512.405,309.562 512.42,309.565 512.435,309.568L512.604,309.605C512.578,309.599 512.79,309.646 512.79,309.646C512.757,309.639 512.939,309.68 512.939,309.68C512.953,309.683 512.967,309.686 512.981,309.69L513.126,309.722C513.05,309.704 513.216,309.742 513.216,309.742C513.232,309.746 513.248,309.75 513.263,309.753L513.473,309.8C513.443,309.793 513.628,309.835 513.628,309.835L513.784,309.87C513.762,309.865 513.924,309.902 513.924,309.902C513.931,309.904 513.939,309.906 513.946,309.908L514.154,309.955C514.091,309.94 514.28,309.984 514.28,309.984C514.306,309.99 514.331,309.996 514.357,310.002L514.504,310.035C514.428,310.017 514.587,310.054 514.587,310.054C514.584,310.054 514.79,310.102 514.79,310.102C514.777,310.099 514.969,310.144 514.969,310.144C514.984,310.147 514.998,310.15 515.012,310.154L515.16,310.188C515.092,310.172 515.248,310.209 515.248,310.209C515.269,310.214 515.289,310.218 515.31,310.223L515.514,310.27C515.416,310.247 515.611,310.294 515.611,310.294C515.63,310.299 515.649,310.303 515.668,310.308L515.817,310.343C515.813,310.342 515.966,310.378 515.966,310.378C515.945,310.373 516.147,310.421 516.147,310.421C516.114,310.413 516.313,310.461 516.313,310.461L516.824,310.583C516.8,310.578 517.002,310.627 517.002,310.627C516.965,310.617 517.115,310.654 517.115,310.654C517.12,310.656 517.125,310.657 517.131,310.658L517.278,310.694C517.285,310.696 517.293,310.698 517.3,310.7L517.498,310.748C517.451,310.736 517.657,310.787 517.657,310.787C517.665,310.789 517.673,310.791 517.68,310.793L517.831,310.83C517.786,310.819 517.93,310.855 517.93,310.855C517.946,310.859 517.961,310.863 517.977,310.866L518.173,310.914C518.093,310.895 518.302,310.948 518.302,310.948C518.333,310.956 518.364,310.963 518.395,310.971L518.511,310.999C518.528,311.003 518.58,311.017 518.58,311.017C518.604,311.023 518.628,311.029 518.652,311.035L518.846,311.083C518.779,311.066 518.991,311.12 518.991,311.12C518.989,311.12 519.142,311.159 519.142,311.159L519.292,311.197C519.278,311.193 519.47,311.242 519.47,311.242L519.703,311.301L519.857,311.34C519.785,311.322 519.919,311.357 519.919,311.357C519.933,311.361 519.947,311.364 519.961,311.368L520.152,311.417C520.119,311.408 520.338,311.465 520.338,311.465L520.496,311.506C520.503,311.508 520.51,311.51 520.516,311.511L520.648,311.545C520.62,311.538 520.808,311.587 520.808,311.587C520.773,311.578 520.996,311.637 520.996,311.637L521.151,311.678C521.141,311.675 521.269,311.709 521.269,311.709C521.28,311.712 521.291,311.715 521.302,311.718L521.489,311.767C521.468,311.761 521.695,311.821 521.695,311.821C521.678,311.817 521.832,311.858 521.832,311.858C521.799,311.849 521.925,311.883 521.925,311.883C521.94,311.887 521.955,311.891 521.97,311.895L522.155,311.944C522.084,311.925 522.315,311.988 522.315,311.988C522.335,311.993 522.354,311.999 522.374,312.004L522.498,312.037C522.512,312.041 522.559,312.054 522.559,312.054C522.585,312.061 522.611,312.068 522.637,312.075L522.82,312.124C522.768,312.11 523.002,312.174 523.002,312.174C523.01,312.176 523.017,312.178 523.025,312.18L523.18,312.222C523.144,312.213 523.264,312.246 523.264,312.246C523.253,312.242 523.434,312.292 523.434,312.292L523.674,312.359C523.689,312.363 523.705,312.367 523.72,312.371L523.875,312.413C523.754,312.38 523.87,312.413 523.87,312.413C523.902,312.422 523.934,312.431 523.966,312.44L524.145,312.489C524.091,312.474 524.334,312.542 524.334,312.542C524.298,312.531 524.453,312.575 524.453,312.575C524.481,312.583 524.509,312.591 524.538,312.599L524.651,312.63C524.578,312.61 524.755,312.66 524.755,312.66L525.005,312.73C524.974,312.722 525.128,312.766 525.128,312.766C525.14,312.769 525.151,312.772 525.163,312.776L525.273,312.807C525.253,312.801 525.429,312.851 525.429,312.851C525.404,312.844 525.655,312.916 525.655,312.916C525.664,312.918 525.673,312.921 525.682,312.923L525.837,312.967C525.785,312.953 525.892,312.984 525.892,312.984C525.899,312.986 525.906,312.988 525.913,312.99L526.087,313.04C526.061,313.032 526.316,313.106 526.316,313.106C526.315,313.106 526.47,313.151 526.47,313.151C526.462,313.149 526.565,313.179 526.565,313.179L526.742,313.23C526.738,313.229 526.999,313.305 526.999,313.305C526.99,313.302 527.144,313.347 527.144,313.347C527.075,313.327 527.175,313.357 527.175,313.357C527.192,313.362 527.209,313.367 527.227,313.372L527.397,313.422C527.395,313.422 527.66,313.5 527.66,313.5L527.763,313.53L527.78,313.535C527.814,313.546 527.848,313.556 527.882,313.566L528.062,313.619L528.332,313.699C528.293,313.688 528.446,313.734 528.446,313.734C528.377,313.713 528.471,313.742 528.471,313.742C528.498,313.75 528.525,313.758 528.551,313.766L528.718,313.816C528.687,313.807 528.961,313.89 528.961,313.89L529.116,313.937C529.072,313.923 529.163,313.951 529.163,313.951C529.176,313.955 529.19,313.96 529.203,313.964L529.368,314.014C529.354,314.009 529.633,314.094 529.633,314.094L529.731,314.124L529.754,314.132C529.787,314.142 529.821,314.153 529.854,314.163L530.017,314.213C529.999,314.207 530.284,314.295 530.284,314.295C530.29,314.297 530.296,314.299 530.303,314.301L530.453,314.347C530.357,314.317 530.442,314.344 530.442,314.344C530.462,314.351 530.483,314.357 530.504,314.364L530.666,314.414L530.956,314.504C530.894,314.484 531.042,314.531 531.042,314.531L531.128,314.559C531.141,314.563 531.154,314.567 531.168,314.571L531.328,314.621C531.304,314.614 531.599,314.707 531.599,314.707C531.56,314.694 531.707,314.741 531.707,314.741C531.7,314.739 531.778,314.764 531.778,314.764C531.796,314.77 531.813,314.775 531.831,314.781L531.99,314.831C531.942,314.816 532.242,314.912 532.242,314.912C532.256,314.916 532.27,314.921 532.284,314.925L532.353,314.947L532.458,314.981L532.614,315.031C532.597,315.026 532.904,315.125 532.904,315.125L533.054,315.173C532.993,315.153 533.066,315.177 533.066,315.177C533.078,315.181 533.09,315.185 533.101,315.189L533.255,315.239C533.245,315.235 533.558,315.337 533.558,315.337C533.555,315.336 533.696,315.382 533.696,315.382C533.635,315.362 533.704,315.385 533.704,315.385C533.723,315.392 533.741,315.398 533.76,315.404L533.913,315.454C533.893,315.447 534.212,315.552 534.212,315.552C534.197,315.547 534.336,315.593 534.336,315.593C534.315,315.586 534.381,315.608 534.381,315.608C534.394,315.612 534.406,315.617 534.419,315.621L534.571,315.671C534.507,315.65 534.831,315.759 534.831,315.759C534.853,315.766 534.876,315.774 534.899,315.781L535.036,315.826C534.994,315.812 535.057,315.833 535.057,315.833C535.057,315.833 535.207,315.883 535.207,315.883C535.164,315.869 535.495,315.981 535.495,315.981C535.502,315.983 535.51,315.986 535.517,315.988L535.651,316.033L535.732,316.06C535.694,316.047 535.842,316.097 535.842,316.097C535.796,316.082 536.134,316.198 536.134,316.198C536.162,316.208 536.19,316.217 536.218,316.226L536.294,316.252L536.406,316.29L536.553,316.339C536.455,316.306 536.8,316.425 536.8,316.425L536.907,316.462L536.923,316.468C536.936,316.472 536.949,316.477 536.962,316.481L537.12,316.536L537.473,316.658C537.463,316.655 537.587,316.698 537.587,316.698C537.535,316.679 537.586,316.697 537.586,316.697C537.595,316.701 537.605,316.704 537.614,316.707L537.757,316.757C537.754,316.756 538.114,316.882 538.114,316.882C538.114,316.882 538.234,316.924 538.234,316.924C538.199,316.912 538.247,316.929 538.247,316.929C538.253,316.931 538.258,316.933 538.264,316.935L538.406,316.985C538.388,316.979 538.755,317.109 538.755,317.109C538.766,317.112 538.777,317.116 538.787,317.12L538.853,317.143L538.892,317.157L539.038,317.209L539.414,317.343C539.408,317.341 539.52,317.381 539.52,317.381C539.52,317.381 539.562,317.396 539.562,317.396C539.519,317.38 539.657,317.43 539.657,317.43C539.668,317.434 539.678,317.438 539.689,317.442L540.074,317.58C540.024,317.562 540.131,317.601 540.131,317.601C540.098,317.589 540.136,317.603 540.136,317.603C540.166,317.614 540.196,317.625 540.226,317.635L540.363,317.684C540.298,317.661 540.692,317.805 540.692,317.805C540.699,317.808 540.707,317.81 540.714,317.813L540.781,317.837L540.85,317.862L540.985,317.911C540.929,317.891 541.332,318.04 541.332,318.04C541.346,318.045 541.36,318.05 541.374,318.056L541.436,318.078L541.493,318.099L541.627,318.148C541.568,318.126 541.981,318.28 541.981,318.28C541.998,318.287 542.015,318.293 542.032,318.299L542.081,318.317L542.113,318.329L542.245,318.378C542.207,318.364 542.63,318.523 542.63,318.523C542.649,318.53 542.667,318.537 542.686,318.544L542.717,318.555L542.754,318.57L542.885,318.619C542.854,318.607 543.288,318.771 543.288,318.771C543.257,318.759 543.333,318.788 543.333,318.788C543.254,318.758 543.277,318.767 543.277,318.767C543.329,318.787 543.382,318.807 543.434,318.827L543.563,318.875C543.47,318.84 543.916,319.011 543.916,319.011L543.993,319.04L544.027,319.052L544.112,319.085C544.107,319.083 544.565,319.26 544.565,319.26C544.573,319.263 544.582,319.267 544.59,319.27L544.65,319.293C544.673,319.302 544.695,319.31 544.718,319.319L544.734,319.325C544.621,319.282 544.747,319.331 544.747,319.331L545.221,319.515C545.192,319.503 545.243,319.523 545.243,319.523C545.263,319.531 545.283,319.539 545.304,319.547L545.447,319.602C545.377,319.575 545.861,319.765 545.861,319.765C545.829,319.752 546.003,319.821 546.003,319.821C546.008,319.823 546.013,319.825 546.017,319.827L546.516,320.024C546.485,320.011 546.643,320.074 546.643,320.074C546.626,320.068 547.14,320.274 547.14,320.274C547.165,320.284 547.189,320.293 547.214,320.303L547.357,320.359C547.251,320.317 547.787,320.534 547.787,320.534C547.788,320.534 547.79,320.535 547.791,320.535C548.668,320.89 549.541,321.249 550.416,321.617L550.533,321.665L551.274,321.978L551.38,322.023L551.387,322.026L551.443,322.05L552.14,322.348L552.281,322.408L552.292,322.413L552.351,322.438L553.012,322.724L553.18,322.797L553.195,322.804L553.256,322.83L553.887,323.107L554.077,323.19L554.096,323.198L554.16,323.226L554.764,323.494L554.972,323.586L554.994,323.596L555.062,323.626L555.642,323.887L555.865,323.987L555.891,323.998L555.961,324.03L556.521,324.285L556.755,324.391L556.785,324.404L556.859,324.438L557.4,324.687L557.644,324.799L557.677,324.814L557.754,324.849L558.279,325.093L558.531,325.21L558.568,325.228L558.647,325.265L559.157,325.504L559.415,325.626L559.456,325.645L559.538,325.684L560.034,325.92L560.298,326.045L560.342,326.066L560.427,326.107L560.91,326.339L561.178,326.468L561.225,326.491L561.313,326.533L561.784,326.762L562.056,326.894L562.107,326.919L562.198,326.964L562.657,327.19L562.932,327.325L562.987,327.352L563.08,327.398L563.529,327.621L563.806,327.759L563.864,327.788L563.96,327.836L564.399,328.057L564.678,328.196L564.739,328.228L564.838,328.278L565.268,328.496L565.547,328.638L565.612,328.671L565.714,328.723L566.134,328.939L566.414,329.083L566.483,329.118L566.588,329.172L566.999,329.386L567.279,329.532L567.351,329.569L567.459,329.625L567.862,329.837L568.142,329.984L568.218,330.024L568.328,330.082L568.723,330.292L569.003,330.44L569.082,330.482L569.195,330.542L569.582,330.75L569.861,330.9L569.943,330.944L570.059,331.006L570.44,331.212L570.718,331.363L570.803,331.41L570.922,331.474L571.295,331.678L571.572,331.83L571.66,331.879L571.781,331.945L572.148,332.148L572.423,332.3L572.515,332.351L572.639,332.42L572.999,332.621L573.273,332.774L573.368,332.828L573.494,332.899L573.847,333.098L574.12,333.252L574.218,333.308L574.347,333.381L574.694,333.579L574.965,333.733L575.066,333.792L575.198,333.867L575.539,334.063L575.807,334.218L575.912,334.279L576.047,334.356L576.381,334.551L576.648,334.706L576.755,334.77L576.893,334.849L577.221,335.043L577.485,335.198L577.597,335.264L577.736,335.346L578.059,335.538L578.321,335.693L578.435,335.762L578.577,335.846L578.894,336.037L579.154,336.192L579.272,336.263L579.416,336.35L579.728,336.539L579.985,336.695L580.106,336.768L580.253,336.858L580.559,337.045L580.814,337.201L580.937,337.277L581.087,337.368L581.388,337.554L581.64,337.71L581.766,337.789L581.919,337.883L582.214,338.067L582.464,338.223L582.593,338.304L582.748,338.401L583.038,338.584L583.285,338.739L583.418,338.823L583.575,338.922L583.86,339.104L584.104,339.259L584.24,339.346L584.399,339.447L584.679,339.627L584.921,339.782L585.059,339.872L585.221,339.976L585.496,340.154L585.735,340.309L585.876,340.401L586.04,340.508L586.311,340.685L586.546,340.839L586.691,340.934L586.857,341.043L587.123,341.219L587.356,341.372L587.503,341.47L587.672,341.582L587.933,341.756L588.162,341.909L588.313,342.01L588.484,342.124L588.74,342.297L588.967,342.449L589.12,342.553L589.293,342.67L589.545,342.841L589.769,342.993L589.924,343.1L590.1,343.219L590.347,343.389L590.568,343.54L590.727,343.65L590.905,343.772L591.147,343.94L591.365,344.091L591.526,344.203L591.707,344.328L591.945,344.495L592.159,344.644L592.323,344.76L592.506,344.888L592.74,345.053L592.951,345.201L593.118,345.32L593.303,345.45L593.532,345.614L593.74,345.762L593.91,345.883L594.097,346.017L594.322,346.178L594.527,346.326L594.699,346.45L594.889,346.586L595.109,346.746L595.311,346.893L595.486,347.02L595.678,347.159L595.894,347.318L596.093,347.463L596.271,347.594L596.464,347.735L596.676,347.892L596.872,348.037L597.052,348.17L597.248,348.315L597.456,348.47L597.649,348.614L597.831,348.75L598.029,348.898L598.233,349.052L598.423,349.194L598.608,349.334L598.808,349.484L599.008,349.636L599.194,349.777L599.382,349.92L599.584,350.074L599.78,350.224L599.963,350.364L600.153,350.51L600.357,350.667L600.549,350.815L600.729,350.954L600.922,351.104L601.128,351.263L601.316,351.41L601.492,351.547L601.688,351.7L601.896,351.862L602.08,352.007L602.253,352.143L602.451,352.3L602.661,352.465L602.841,352.608L603.011,352.743L603.211,352.903L603.423,353.071L603.6,353.212L603.767,353.346L603.969,353.509L604.183,353.68L604.356,353.82L604.52,353.952L604.725,354.118L604.94,354.292L605.109,354.43L605.27,354.561L605.477,354.731L605.695,354.908L605.86,355.044L606.017,355.173L606.227,355.346L606.446,355.527L606.608,355.661L606.762,355.789L606.974,355.965L607.195,356.149L607.353,356.281L607.504,356.407L607.718,356.587L607.941,356.774L608.095,356.905L608.243,357.029L608.46,357.213L608.685,357.403L608.835,357.531L608.98,357.654L609.199,357.841L609.425,358.034L609.572,358.161L609.714,358.282L609.935,358.473L610.163,358.669L610.306,358.793L610.445,358.913L610.668,359.107L610.898,359.307L611.038,359.429L611.173,359.547L611.399,359.745L611.63,359.948L611.767,360.068L611.899,360.184L612.126,360.386L612.359,360.592L612.492,360.71L612.622,360.825L612.851,361.03L613.086,361.239L613.215,361.356L613.342,361.468L613.573,361.677L613.809,361.889L613.936,362.004L614.059,362.115L614.292,362.327L614.53,362.543L614.653,362.655L614.773,362.764L615.009,362.98L615.248,363.199L615.368,363.31L615.485,363.417L615.722,363.637L615.963,363.859L616.079,363.967L616.193,364.072L616.433,364.296L616.675,364.522L616.788,364.628L616.899,364.731L617.141,364.958L617.385,365.187L617.494,365.291L617.602,365.393L617.846,365.624L618.091,365.856L618.197,365.958L618.302,366.057L618.548,366.292L618.794,366.528L618.898,366.627L618.999,366.725L619.247,366.964L619.495,367.203L619.595,367.3L619.694,367.395L619.943,367.638L620.192,367.88L620.289,367.975L620.385,368.069L620.636,368.316L620.887,368.561L620.981,368.654L621.074,368.745L621.327,368.996L621.579,369.245L621.669,369.335L621.759,369.424L622.014,369.679L622.267,369.932L622.355,370.02L622.442,370.107L622.699,370.366L622.953,370.622L623.038,370.707L623.122,370.792L623.38,371.055L623.636,371.314L623.717,371.398L623.798,371.48L624.059,371.747L624.315,372.01L624.394,372.091L624.472,372.171L624.734,372.442L624.992,372.708L625.068,372.787L625.143,372.865L625.407,373.14L625.666,373.41L625.738,373.486L625.811,373.562L626.077,373.841L626.336,374.114L626.406,374.188L626.476,374.262L626.743,374.545L627.004,374.822L627.071,374.893L627.138,374.964L627.407,375.252L627.668,375.532L627.732,375.601L627.796,375.67L628.067,375.962L628.33,376.245L628.391,376.311L628.452,376.378L628.725,376.675L628.988,376.961L629.046,377.025L629.105,377.089L629.379,377.39L629.643,377.68L629.699,377.741L629.755,377.803L630.031,378.108L630.296,378.402L630.348,378.46L630.402,378.519L630.679,378.83L630.945,379.126L630.995,379.182L631.045,379.239L631.325,379.554L631.591,379.853L631.638,379.907L631.686,379.961L631.967,380.281L632.233,380.584L632.278,380.635L632.323,380.686L632.606,381.011L632.873,381.317L632.915,381.365L632.958,381.414L633.242,381.743L633.51,382.052L633.549,382.098L633.589,382.144L633.875,382.479L634.143,382.791L634.18,382.834L634.217,382.878L634.506,383.218L634.773,383.532L634.807,383.573L634.842,383.614L635.133,383.959L635.4,384.276L635.432,384.314L635.464,384.352L635.757,384.703L636.024,385.023L636.053,385.058L636.083,385.094L636.378,385.451L636.644,385.773L636.671,385.805L636.698,385.838L636.996,386.201L637.262,386.525L637.286,386.555L637.311,386.585L637.611,386.955L637.876,387.28L637.897,387.307L637.92,387.335L638.223,387.711L638.487,388.038L638.506,388.062L638.526,388.087L638.833,388.471L639.095,388.799L639.111,388.82L639.129,388.842L639.44,389.235L639.699,389.562L639.713,389.58L639.728,389.599L640.046,390.004L640.3,390.328L640.325,390.359L640.65,390.777L640.898,391.096L640.918,391.122L641.254,391.558L641.492,391.867L641.508,391.888L641.862,392.351L642.084,392.641L642.095,392.656L642.485,393.171L642.672,393.418L642.678,393.426L643.257,394.198C643.45,394.457 643.643,394.716 643.837,394.978L644.409,395.754L644.416,395.763L644.603,396.019L644.979,396.535L644.99,396.55L645.204,396.846L645.546,397.318L645.561,397.34L645.788,397.655L646.11,398.104L646.129,398.132L646.361,398.459L646.67,398.893L646.694,398.926L646.929,399.26L647.227,399.684L647.241,399.704L647.255,399.724L647.491,400.062L647.78,400.477L647.797,400.501L647.812,400.523L648.048,400.865L648.331,401.273L648.349,401.3L648.367,401.326L648.601,401.669L648.878,402.072L648.898,402.102L648.918,402.131L649.151,402.475L649.421,402.873L649.444,402.906L649.465,402.938L649.696,403.283L649.961,403.677L649.986,403.713L650.009,403.748L650.238,404.093L650.498,404.482L650.524,404.522L650.549,404.56L650.776,404.905L651.031,405.291L651.059,405.334L651.086,405.375L651.311,405.719L651.561,406.102L651.591,406.148L651.62,406.192L651.842,406.536L652.087,406.915L652.119,406.965L652.15,407.012L652.369,407.355L652.61,407.731L652.644,407.784L652.677,407.834L652.893,408.176L653.13,408.549L653.165,408.605L653.2,408.659L653.413,408.999L653.646,409.369L653.683,409.429L653.719,409.486L653.93,409.825L654.159,410.192L654.197,410.255L654.235,410.316L654.443,410.653L654.668,411.017L654.708,411.084L654.748,411.148L654.952,411.484L655.173,411.845L655.215,411.915L655.256,411.982L655.458,412.317L655.675,412.675L655.719,412.748L655.762,412.819L655.961,413.152L656.174,413.507L656.219,413.584L656.263,413.658L656.459,413.989L656.669,414.342L656.716,414.422L656.762,414.499L656.955,414.829L657.16,415.179L657.209,415.262L657.256,415.343L657.446,415.671L657.648,416.018L657.698,416.105L657.747,416.189L657.934,416.515L658.133,416.86L658.184,416.95L658.234,417.038L658.419,417.362L658.613,417.704L658.666,417.798L658.718,417.889L658.899,418.211L659.091,418.55L659.145,418.647L659.198,418.742L659.376,419.062L659.564,419.398L659.62,419.499L659.675,419.597L659.85,419.915L660.034,420.249L660.091,420.354L660.147,420.455L660.32,420.771L660.501,421.102L660.559,421.21L660.617,421.315L660.786,421.629L660.964,421.957L661.023,422.069L661.082,422.177L661.248,422.489L661.423,422.815L661.484,422.93L661.544,423.042L661.707,423.351L661.878,423.674L661.941,423.793L662.002,423.909L662.162,424.216L662.33,424.536L662.394,424.659L662.456,424.778L662.614,425.083L662.778,425.4L662.843,425.526L662.907,425.649L663.061,425.952L663.223,426.266L663.289,426.396L663.353,426.523L663.505,426.823L663.664,427.135L663.731,427.268L663.796,427.398L663.946,427.696L664.101,428.005L664.169,428.143L664.236,428.276L664.382,428.572L664.534,428.878L664.603,429.019L664.671,429.156L664.815,429.449L664.964,429.753L665.034,429.898L665.103,430.039L665.244,430.329L665.39,430.63L665.461,430.778L665.531,430.923L665.669,431.211L665.812,431.509L665.884,431.661L665.955,431.81L666.091,432.095L666.231,432.39L666.304,432.546L666.376,432.699L666.508,432.982L666.645,433.274L666.72,433.433L666.793,433.589L666.922,433.87L667.056,434.159L667.131,434.323L667.205,434.482L667.332,434.76L667.464,435.047L667.54,435.214L667.614,435.378L667.738,435.653L667.867,435.936L667.944,436.108L668.019,436.275L668.141,436.547L668.267,436.828L668.344,437.003L668.421,437.174L668.54,437.444L668.663,437.722L668.741,437.901L668.818,438.076L668.934,438.343L669.055,438.618L669.134,438.8L669.211,438.979L669.325,439.244L669.443,439.516L669.522,439.702L669.601,439.885L669.712,440.146L669.827,440.415L669.907,440.606L669.987,440.792L670.095,441.051L670.208,441.317L670.289,441.512L670.368,441.702L670.475,441.958L670.584,442.221L670.666,442.419L670.746,442.613L670.85,442.867L670.957,443.127L671.039,443.329L671.12,443.527L671.221,443.778L671.326,444.035L671.409,444.241L671.49,444.443L671.589,444.691L671.691,444.945L671.774,445.155L671.856,445.361L671.953,445.606L672.052,445.857L672.136,446.071L672.218,446.28L672.312,446.523L672.409,446.77L672.493,446.988L672.576,447.202L672.668,447.441L672.762,447.686L672.847,447.908L672.93,448.126L673.02,448.362L673.112,448.604L673.197,448.83L673.28,449.051L673.367,449.285L673.457,449.523L673.542,449.753L673.626,449.979L673.711,450.209L673.798,450.445L673.884,450.679L673.968,450.908L674.051,451.136L674.136,451.368L674.222,451.606L674.306,451.84L674.387,452.064L674.469,452.293L674.556,452.536L674.64,452.773L674.719,452.994L674.799,453.22L674.885,453.467L674.97,453.708L675.046,453.927L675.124,454.149L675.211,454.4L675.296,454.645L675.37,454.861L675.446,455.08L675.533,455.335L675.618,455.584L675.69,455.797L675.763,456.013L675.85,456.272L675.936,456.525L676.005,456.734L676.077,456.948L676.164,457.21L676.249,457.468L676.317,457.674L676.386,457.884L676.473,458.151L676.559,458.412L676.624,458.615L676.692,458.822L676.779,459.093L676.864,459.359L676.928,459.559L676.993,459.762L677.08,460.038L677.166,460.307L677.227,460.504L677.29,460.704L677.377,460.984L677.463,461.257L677.522,461.451L677.584,461.648L677.67,461.931L677.756,462.209L677.813,462.399L677.873,462.593L677.959,462.881L678.045,463.163L678.1,463.35L678.158,463.54L678.244,463.832L678.329,464.118L678.383,464.302L678.439,464.489L678.525,464.786L678.61,465.075L678.662,465.256L678.715,465.44L678.801,465.74L678.886,466.034L678.936,466.212L678.988,466.392L679.074,466.697L679.158,466.995L679.207,467.169L679.256,467.346L679.342,467.656L679.426,467.958L679.473,468.129L679.521,468.302L679.606,468.616L679.69,468.922L679.735,469.09L679.781,469.259L679.866,469.578L679.949,469.888L679.993,470.052L680.037,470.219L680.122,470.541L680.205,470.856L680.246,471.017L680.289,471.18L680.373,471.506L680.456,471.825L680.496,471.983L680.537,472.142L680.62,472.473L680.702,472.796L680.741,472.95L680.78,473.106L680.863,473.442L680.945,473.769L680.982,473.92L681.019,474.072L681.102,474.412L681.183,474.743L681.218,474.891L681.254,475.04L681.336,475.384L681.417,475.719L681.45,475.863L681.485,476.009L681.567,476.358L681.646,476.697L681.679,476.838L681.712,476.98L681.792,477.333L681.871,477.677L681.902,477.814L681.934,477.952L682.014,478.31L682.092,478.658L682.122,478.791L682.152,478.926L682.231,479.289L682.309,479.64L682.337,479.77L682.366,479.902L682.444,480.269L682.521,480.625L682.548,480.751L682.575,480.879L682.653,481.25L682.729,481.61L682.754,481.733L682.781,481.858L682.858,482.234L682.933,482.598L682.957,482.717L682.981,482.838L683.058,483.219L683.132,483.587L683.155,483.703L683.178,483.82L683.253,484.205L683.326,484.577L683.348,484.69L683.37,484.804L683.445,485.193L683.517,485.57L683.537,485.678L683.558,485.789L683.632,486.183L683.703,486.563L683.722,486.669L683.742,486.775L683.814,487.174L683.884,487.559L683.902,487.66L683.921,487.763L683.992,488.167L684.061,488.555L684.078,488.653L684.096,488.752L684.166,489.161L684.234,489.554L684.25,489.648L684.266,489.743L684.336,490.157L684.402,490.553L684.417,490.644L684.432,490.736L684.5,491.154L684.566,491.555L684.58,491.642L684.594,491.73L684.661,492.153L684.725,492.557L684.738,492.641L684.751,492.725L684.817,493.153L684.88,493.562L684.892,493.641L684.904,493.722L684.969,494.155L685.03,494.567L685.041,494.643L685.053,494.72L685.116,495.158L685.176,495.574L685.186,495.647L685.197,495.72L685.259,496.163L685.317,496.583L685.327,496.652L685.336,496.721L685.397,497.17L685.454,497.593L685.463,497.658L685.471,497.724L685.53,498.177L685.586,498.605L685.594,498.666L685.602,498.728L685.66,499.187L685.714,499.617L685.721,499.675L685.728,499.733L685.784,500.198L685.837,500.632L685.843,500.685L685.85,500.74L685.905,501.21L685.956,501.647L685.961,501.697L685.967,501.748L686.02,502.224L686.07,502.664L686.074,502.71L686.08,502.757L686.131,503.24L686.179,503.683L686.183,503.725L686.188,503.768L686.238,504.257L686.284,504.702L686.287,504.741L686.291,504.78L686.34,505.276L686.384,505.723L686.387,505.758L686.39,505.793L686.437,506.297L686.479,506.746L686.482,506.777L686.485,506.808L686.53,507.321L686.57,507.77L686.572,507.797L686.575,507.824L686.619,508.347L686.656,508.795L686.658,508.818L686.66,508.841L686.703,509.376L686.738,509.821L686.741,509.86L686.782,510.409L686.815,510.849L686.817,510.88L686.857,511.45L686.887,511.878L686.889,511.901L686.928,512.505L686.955,512.908L686.956,512.923L686.997,513.601L687.018,513.939L687.018,513.947L687.076,514.972C687.076,514.965 687.104,515.49 687.104,515.49L687.112,515.635L687.112,515.648L687.115,515.713C687.116,515.731 687.117,515.75 687.118,515.769L687.141,516.213C687.139,516.169 687.148,516.359 687.148,516.359C687.146,516.33 687.148,516.375 687.148,516.375C687.149,516.388 687.15,516.402 687.15,516.415L687.155,516.518C687.153,516.481 687.171,516.883 687.171,516.883L687.18,517.08L687.183,517.144C687.182,517.104 687.188,517.244 687.188,517.244C687.188,517.249 687.188,517.254 687.188,517.26L687.204,517.62C687.204,517.605 687.211,517.768 687.211,517.768C687.208,517.704 687.211,517.786 687.211,517.786C687.211,517.797 687.212,517.807 687.212,517.818L687.22,518.004L687.233,518.323C687.232,518.315 687.238,518.465 687.238,518.465C687.238,518.461 687.242,518.562 687.242,518.562C687.24,518.5 687.247,518.71 687.247,518.71C687.248,518.729 687.248,518.748 687.249,518.768L687.26,519.049C687.259,519.028 687.264,519.163 687.264,519.163C687.263,519.126 687.267,519.246 687.267,519.246C687.267,519.24 687.275,519.484 687.275,519.484L687.287,519.85C687.287,519.859 687.287,519.868 687.288,519.876L687.293,520.016C687.291,519.949 687.299,520.225 687.299,520.225C687.299,520.242 687.3,520.258 687.3,520.275L687.307,520.481C687.305,520.427 687.308,520.532 687.308,520.532C687.307,520.495 687.311,520.656 687.311,520.656C687.312,520.67 687.312,520.685 687.313,520.7L687.322,521.011L687.327,521.18L687.326,521.163C687.326,521.176 687.327,521.198 687.327,521.198C687.327,521.215 687.328,521.231 687.328,521.248L687.333,521.43C687.332,521.391 687.34,521.73 687.34,521.73C687.34,521.72 687.343,521.853 687.343,521.853C687.343,521.869 687.344,521.885 687.344,521.901L687.346,521.974C687.345,521.946 687.35,522.15 687.35,522.15C687.349,522.095 687.356,522.463 687.356,522.463L687.358,522.572C687.358,522.554 687.359,522.609 687.359,522.609C687.359,522.622 687.36,522.636 687.36,522.649L687.365,522.875C687.364,522.829 687.371,523.227 687.371,523.227C687.371,523.205 687.372,523.27 687.372,523.27C687.372,523.307 687.373,523.343 687.374,523.38L687.375,523.418C687.373,523.315 687.377,523.564 687.377,523.564C687.376,523.544 687.382,523.97 687.382,523.97C687.382,523.975 687.383,523.979 687.383,523.984L687.388,524.308C687.387,524.264 687.392,524.718 687.392,524.718C687.393,524.799 687.395,524.881 687.398,524.963C687.402,525.082 687.404,525.197 687.405,525.311C687.404,525.27 687.405,526.968 687.405,526.968C687.405,526.963 687.405,527.062 687.405,527.062L687.405,527.162C687.405,649.917 587.7,749.612 464.734,750.011L463.999,750.012C464.012,750.012 463.958,750.012 463.958,750.012L463.905,750.012L463.183,750.01C340.158,749.612 240.405,649.825 240.405,526.963C240.405,522.466 240.538,518.001 240.803,513.566C240.824,513.204 240.826,512.842 240.808,512.479C240.331,502.787 240.571,487.629 243.728,467.317C243.772,467.035 243.816,466.751 243.862,466.464L243.871,466.404L243.906,466.187L243.976,465.75L243.999,465.603L244.018,465.485L244.053,465.275L244.104,464.959L244.141,464.73L244.169,464.558L244.198,464.389L244.235,464.163L244.289,463.84L244.325,463.625L244.344,463.509L244.369,463.362L244.446,462.908L244.484,462.686L244.494,462.627C244.544,462.334 244.595,462.041 244.647,461.743L244.789,460.931L244.803,460.852L244.815,460.786L244.856,460.557L244.935,460.11L244.963,459.953L244.986,459.826L245.026,459.608L245.084,459.285L245.129,459.043L245.162,458.86L245.194,458.685L245.236,458.455L245.3,458.114L245.342,457.887L245.364,457.767L245.392,457.62L245.482,457.141L245.526,456.907L245.537,456.849C245.596,456.542 245.655,456.234 245.713,455.929L245.715,455.921L245.731,455.839L245.877,455.086L245.894,455.001L245.908,454.928L245.956,454.683L246.045,454.231L246.078,454.065L246.105,453.928L246.151,453.7L246.217,453.372L246.268,453.118L246.307,452.922L246.344,452.74L246.391,452.508L246.464,452.152L246.514,451.909L246.539,451.785L246.569,451.639L246.673,451.14L246.725,450.89L246.737,450.83C246.803,450.514 246.87,450.198 246.937,449.878L246.94,449.864L246.969,449.728L247.123,449.003L247.143,448.914L247.16,448.831L247.218,448.565L247.315,448.114L247.353,447.942L247.385,447.792L247.438,447.549L247.51,447.221L247.568,446.958L247.615,446.746L247.657,446.554L247.708,446.323L247.79,445.958L247.849,445.694L247.878,445.563L247.91,445.42L248.026,444.911L248.088,444.634L248.103,444.571C248.176,444.246 248.251,443.92 248.327,443.592L248.332,443.569L248.379,443.366L248.537,442.683L248.559,442.592L248.581,442.497L248.65,442.202L248.754,441.761L248.795,441.584L248.834,441.418L248.897,441.156L248.973,440.834L249.037,440.567L249.093,440.333L249.143,440.127L249.197,439.902L249.286,439.533L249.357,439.241L249.391,439.101L249.424,438.965L249.548,438.458L249.626,438.142L249.643,438.073C249.725,437.739 249.808,437.403 249.891,437.071L249.899,437.037L249.971,436.754L250.128,436.127L250.151,436.037L250.178,435.926L250.263,435.595L250.37,435.171L250.415,434.995L250.463,434.808L250.536,434.521L250.616,434.21L250.685,433.944L250.752,433.683L250.81,433.46L250.866,433.245L250.961,432.88L251.047,432.552L251.087,432.4L251.119,432.275L251.249,431.785L251.347,431.415L251.367,431.337C251.457,431 251.547,430.661 251.639,430.319L251.652,430.27L251.753,429.894L251.904,429.336L251.927,429.25L251.963,429.12L252.065,428.745L252.173,428.347L252.221,428.175L252.279,427.963L252.366,427.647L252.447,427.353L252.519,427.093L252.6,426.799L252.669,426.555L252.724,426.354L252.823,426.003L252.927,425.629L252.975,425.461L253.006,425.351L253.135,424.895L253.26,424.453L253.285,424.364L253.291,424.343L253.516,423.557L253.598,423.27L253.737,422.79L253.875,422.312L253.898,422.234L253.942,422.08L254.066,421.655L254.173,421.29L254.221,421.126L254.292,420.884L254.395,420.534L254.475,420.263L254.548,420.015L254.647,419.682L254.727,419.412L254.781,419.231L254.88,418.901L255.008,418.473L255.064,418.287L255.092,418.194L255.213,417.792L255.375,417.258L255.407,417.153L255.458,416.984L255.747,416.036L255.93,415.444L256.049,415.056L256.07,414.988L256.126,414.808L256.276,414.325L256.377,414.001L256.424,413.85L256.511,413.573L256.633,413.184L256.709,412.941L256.782,412.711L256.901,412.332L256.996,412.034L257.046,411.876L257.141,411.577L257.298,411.085L257.364,410.877L257.387,410.806L257.492,410.478L257.7,409.831C257.836,409.411 257.973,408.991 258.109,408.571L258.341,407.862L258.437,407.569L258.455,407.515L258.524,407.304L258.704,406.759L258.796,406.481L258.84,406.347L258.945,406.031L259.089,405.6L259.159,405.388L259.229,405.181L259.372,404.752L259.483,404.423L259.527,404.29L259.615,404.031L259.806,403.466L259.884,403.236L259.9,403.188L259.979,402.956L260.245,402.174C260.394,401.741 260.543,401.308 260.692,400.875L260.979,400.047L261.046,399.853L261.06,399.814L261.144,399.57L261.358,398.961L261.437,398.732L261.478,398.617L261.603,398.259L261.771,397.784L261.834,397.606L261.897,397.427L262.069,396.942L262.197,396.58L262.235,396.476L262.31,396.264L262.541,395.618L262.632,395.363L262.64,395.341L262.682,395.226L263.019,394.287C263.181,393.842 263.343,393.396 263.505,392.951L263.851,392.006L263.886,391.908L263.894,391.888L263.996,391.608L264.246,390.933L264.312,390.755L264.346,390.662L264.495,390.259L264.689,389.738L264.742,389.596L264.797,389.449L265,388.903L265.149,388.509L265.177,388.434L265.236,388.275C265.8,386.777 266.375,385.266 266.964,383.744L267.09,383.418L267.377,382.678L267.427,382.55L267.454,382.481L267.629,382.031L267.851,381.466L267.892,381.36L267.937,381.246L268.176,380.637L268.345,380.211L268.363,380.165L268.403,380.064C269.168,378.127 269.954,376.172 270.76,374.202L270.793,374.12L270.812,374.075L271.015,373.577L271.265,372.97L271.295,372.898L271.328,372.817L271.605,372.146L271.794,371.688L271.802,371.67L271.819,371.629C272.658,369.607 273.518,367.565 274.401,365.507L274.418,365.466L274.429,365.442L274.662,364.898L274.94,364.254L274.958,364.211L274.979,364.162C276.056,361.668 277.165,359.147 278.308,356.597L278.578,355.995L278.901,355.279C280.255,352.28 281.654,349.245 283.101,346.174L283.106,346.166C285.8,340.447 288.66,334.601 291.697,328.628ZM403.376,527.02C403.452,493.703 430.599,466.688 464.012,466.688C497.472,466.688 524.648,493.779 524.648,527.162C524.648,560.544 497.472,587.634 464.012,587.634C430.602,587.634 403.457,560.625 403.376,527.316C403.377,527.218 403.377,527.119 403.376,527.02ZM536.907,316.462C536.903,316.461 536.901,316.46 536.905,316.461C536.909,316.462 536.918,316.466 536.938,316.472L536.907,316.462ZM529.731,314.124C529.724,314.122 529.72,314.121 529.726,314.122C529.732,314.124 529.749,314.129 529.784,314.14L529.731,314.124ZM527.763,313.53C527.753,313.527 527.744,313.524 527.751,313.526C527.758,313.528 527.78,313.534 527.833,313.55L527.763,313.53ZM522.498,312.037C522.493,312.036 522.492,312.035 522.496,312.036C522.501,312.038 522.51,312.04 522.528,312.045L522.498,312.037ZM518.511,310.999C518.506,310.998 518.504,310.997 518.509,310.998C518.514,311 518.526,311.002 518.547,311.008L518.511,310.999ZM507.529,308.542C507.528,308.542 507.528,308.542 507.532,308.543C507.535,308.543 507.542,308.545 507.552,308.547L507.529,308.542ZM497.798,306.846C497.795,306.846 497.794,306.845 497.798,306.846C497.801,306.847 497.809,306.848 497.823,306.85L497.798,306.846Z" style="fill:white;"/>
    </g>
    <g transform="matrix(0.752327,0,0,0.752327,205.627,312.169)">
        <g transform="matrix(318.299,0,0,318.299,-147,1144)">
            <path d="M0.055,-0.035L0.055,-0.44C0.055,-0.45 0.06,-0.458 0.07,-0.465C0.079,-0.471 0.092,-0.474 0.107,-0.474C0.12,-0.474 0.131,-0.471 0.14,-0.464C0.149,-0.458 0.154,-0.45 0.154,-0.44L0.154,-0.403C0.183,-0.454 0.227,-0.48 0.287,-0.48C0.316,-0.48 0.343,-0.471 0.366,-0.452C0.389,-0.434 0.406,-0.409 0.418,-0.379C0.435,-0.412 0.457,-0.437 0.484,-0.454C0.51,-0.471 0.539,-0.48 0.569,-0.48C0.616,-0.48 0.657,-0.462 0.692,-0.427C0.726,-0.391 0.743,-0.343 0.743,-0.283L0.743,-0.035C0.743,-0.026 0.738,-0.018 0.727,-0.011C0.716,-0.004 0.704,0 0.69,0C0.677,0 0.665,-0.004 0.654,-0.011C0.643,-0.018 0.638,-0.026 0.638,-0.035L0.638,-0.282C0.638,-0.315 0.629,-0.34 0.61,-0.359C0.591,-0.378 0.57,-0.387 0.545,-0.387C0.52,-0.387 0.499,-0.378 0.48,-0.359C0.461,-0.34 0.451,-0.316 0.451,-0.284L0.451,-0.034C0.451,-0.023 0.446,-0.014 0.436,-0.008C0.425,-0.003 0.413,0 0.398,0C0.385,0 0.373,-0.003 0.362,-0.008C0.351,-0.014 0.346,-0.023 0.346,-0.034L0.346,-0.283C0.346,-0.313 0.337,-0.338 0.319,-0.357C0.3,-0.376 0.278,-0.386 0.253,-0.386C0.228,-0.386 0.206,-0.377 0.188,-0.358C0.169,-0.339 0.16,-0.314 0.16,-0.282L0.16,-0.035C0.16,-0.026 0.155,-0.018 0.144,-0.011C0.133,-0.004 0.121,0 0.107,0C0.092,0 0.08,-0.004 0.07,-0.011C0.06,-0.018 0.055,-0.026 0.055,-0.035Z" style="fill:white;fill-rule:nonzero;"/>
        </g>
        <g transform="matrix(318.299,0,0,318.299,105.729,1144)">
            <path d="M0.036,-0.191L0.036,-0.283C0.036,-0.336 0.056,-0.382 0.097,-0.421C0.138,-0.46 0.186,-0.48 0.243,-0.48C0.298,-0.48 0.347,-0.461 0.388,-0.422C0.429,-0.383 0.45,-0.336 0.45,-0.283L0.45,-0.191C0.45,-0.139 0.429,-0.093 0.388,-0.053C0.346,-0.012 0.298,0.008 0.243,0.008C0.188,0.008 0.139,-0.012 0.098,-0.052C0.057,-0.092 0.036,-0.138 0.036,-0.191ZM0.141,-0.191C0.141,-0.164 0.151,-0.14 0.171,-0.118C0.191,-0.097 0.215,-0.086 0.243,-0.086C0.27,-0.086 0.294,-0.097 0.315,-0.118C0.335,-0.14 0.345,-0.164 0.345,-0.191L0.345,-0.283C0.345,-0.309 0.335,-0.333 0.315,-0.354C0.294,-0.375 0.27,-0.386 0.243,-0.386C0.215,-0.386 0.191,-0.375 0.171,-0.354C0.151,-0.333 0.141,-0.309 0.141,-0.283L0.141,-0.191Z" style="fill:white;fill-rule:nonzero;"/>
        </g>
        <g transform="matrix(318.299,0,0,318.299,260.74,1144)">
            <path d="M0.055,-0.035L0.055,-0.44C0.055,-0.45 0.06,-0.458 0.07,-0.465C0.079,-0.471 0.092,-0.474 0.107,-0.474C0.12,-0.474 0.131,-0.471 0.14,-0.464C0.149,-0.458 0.154,-0.45 0.154,-0.44L0.154,-0.403C0.183,-0.454 0.227,-0.48 0.287,-0.48C0.316,-0.48 0.343,-0.471 0.366,-0.452C0.389,-0.434 0.406,-0.409 0.418,-0.379C0.435,-0.412 0.457,-0.437 0.484,-0.454C0.51,-0.471 0.539,-0.48 0.569,-0.48C0.616,-0.48 0.657,-0.462 0.692,-0.427C0.726,-0.391 0.743,-0.343 0.743,-0.283L0.743,-0.035C0.743,-0.026 0.738,-0.018 0.727,-0.011C0.716,-0.004 0.704,0 0.69,0C0.677,0 0.665,-0.004 0.654,-0.011C0.643,-0.018 0.638,-0.026 0.638,-0.035L0.638,-0.282C0.638,-0.315 0.629,-0.34 0.61,-0.359C0.591,-0.378 0.57,-0.387 0.545,-0.387C0.52,-0.387 0.499,-0.378 0.48,-0.359C0.461,-0.34 0.451,-0.316 0.451,-0.284L0.451,-0.034C0.451,-0.023 0.446,-0.014 0.436,-0.008C0.425,-0.003 0.413,0 0.398,0C0.385,0 0.373,-0.003 0.362,-0.008C0.351,-0.014 0.346,-0.023 0.346,-0.034L0.346,-0.283C0.346,-0.313 0.337,-0.338 0.319,-0.357C0.3,-0.376 0.278,-0.386 0.253,-0.386C0.228,-0.386 0.206,-0.377 0.188,-0.358C0.169,-0.339 0.16,-0.314 0.16,-0.282L0.16,-0.035C0.16,-0.026 0.155,-0.018 0.144,-0.011C0.133,-0.004 0.121,0 0.107,0C0.092,0 0.08,-0.004 0.07,-0.011C0.06,-0.018 0.055,-0.026 0.055,-0.035Z" style="fill:white;fill-rule:nonzero;"/>
        </g>
        <g transform="matrix(318.299,0,0,318.299,513.47,1144)">
            <path d="M0.056,-0.035L0.056,-0.612C0.056,-0.622 0.061,-0.631 0.07,-0.637C0.079,-0.643 0.092,-0.646 0.107,-0.646C0.122,-0.646 0.135,-0.643 0.145,-0.637C0.156,-0.631 0.161,-0.622 0.161,-0.612L0.161,-0.403C0.172,-0.425 0.189,-0.443 0.212,-0.458C0.235,-0.473 0.261,-0.48 0.29,-0.48C0.339,-0.48 0.382,-0.461 0.417,-0.422C0.452,-0.383 0.469,-0.337 0.469,-0.283L0.469,-0.191C0.469,-0.139 0.451,-0.093 0.416,-0.053C0.381,-0.012 0.34,0.008 0.293,0.008C0.263,0.008 0.235,0 0.21,-0.015C0.185,-0.031 0.166,-0.049 0.155,-0.071L0.155,-0.035C0.155,-0.027 0.15,-0.019 0.141,-0.011C0.131,-0.004 0.12,0 0.107,0C0.092,0 0.08,-0.004 0.07,-0.011C0.061,-0.018 0.056,-0.026 0.056,-0.035ZM0.161,-0.168C0.161,-0.154 0.172,-0.136 0.193,-0.116C0.214,-0.096 0.237,-0.086 0.263,-0.086C0.29,-0.086 0.314,-0.097 0.334,-0.118C0.354,-0.14 0.364,-0.164 0.364,-0.191L0.364,-0.283C0.364,-0.309 0.354,-0.333 0.334,-0.354C0.313,-0.375 0.289,-0.386 0.262,-0.386C0.236,-0.386 0.213,-0.376 0.192,-0.357C0.171,-0.338 0.161,-0.313 0.161,-0.283L0.161,-0.168Z" style="fill:white;fill-rule:nonzero;"/>
        </g>
        <g transform="matrix(318.299,0,0,318.299,674.529,1144)">
            <path d="M0.025,-0.124C0.025,-0.177 0.045,-0.215 0.085,-0.235C0.125,-0.257 0.183,-0.267 0.259,-0.267L0.303,-0.267L0.303,-0.285C0.303,-0.315 0.295,-0.341 0.279,-0.363C0.262,-0.385 0.237,-0.396 0.204,-0.396C0.175,-0.396 0.15,-0.391 0.129,-0.38C0.107,-0.369 0.095,-0.363 0.093,-0.363C0.082,-0.363 0.073,-0.369 0.066,-0.38C0.059,-0.391 0.055,-0.403 0.055,-0.416C0.055,-0.433 0.071,-0.448 0.103,-0.461C0.136,-0.474 0.17,-0.48 0.206,-0.48C0.275,-0.48 0.326,-0.462 0.359,-0.425C0.392,-0.388 0.408,-0.341 0.408,-0.286L0.408,-0.035C0.408,-0.026 0.403,-0.018 0.394,-0.011C0.384,-0.004 0.372,0 0.357,0C0.344,0 0.332,-0.004 0.323,-0.011C0.314,-0.018 0.309,-0.026 0.309,-0.035L0.309,-0.07C0.264,-0.018 0.214,0.008 0.158,0.008C0.119,0.008 0.087,-0.003 0.063,-0.026C0.038,-0.049 0.025,-0.081 0.025,-0.124ZM0.131,-0.137C0.131,-0.116 0.137,-0.1 0.149,-0.089C0.161,-0.078 0.177,-0.072 0.196,-0.072C0.221,-0.072 0.246,-0.083 0.269,-0.104C0.292,-0.125 0.303,-0.148 0.303,-0.172L0.303,-0.209L0.278,-0.209C0.248,-0.209 0.224,-0.208 0.204,-0.205C0.186,-0.202 0.169,-0.195 0.154,-0.184C0.139,-0.173 0.131,-0.157 0.131,-0.137Z" style="fill:white;fill-rule:nonzero;"/>
        </g>
    </g>
</svg>
